<svg width="782" height="152" viewBox="0 0 782 152" fill="none"
    xmlns="http://www.w3.org/2000/svg">
    <g clip-path="url(#clip0_1_234)">
        <path d="M75.58 151.6H50.39V126.41H41.98V101.17H33.56V75.98H25.15V50.74H16.73V25.55H0V17.13H134.43V25.55H109.24V50.74H117.6V75.98H126.02V101.17H134.43V126.41H142.85V151.6H117.61V126.41H109.25V101.17H100.84V75.98H92.42V50.74H84.01V25.55H41.99V50.74H50.4V75.98H58.82V101.17H67.18V126.41H75.59V151.6H75.58ZM84 126.41H75.58V101.17H84V126.41ZM92.41 101.17H84V75.98H92.41V101.17ZM151.26 126.41H142.85V101.17H151.26V126.41ZM176.45 50.73H168.03V25.54H151.25V17.12H193.27V25.54H176.44V50.73H176.45ZM159.67 101.17H151.25V75.98H159.67V101.17ZM168.03 75.98H159.67V50.74H168.03V75.98Z" fill="#6A0DAD"/>
        <path d="M226.91 151.6H184.89V143.24H193.25V84.39H184.89V75.97H193.25V67.56H201.66V59.14H210.08V50.73H218.49V143.24H226.91V151.6Z" fill="#6A0DAD"/>
        <path d="M319.36 151.6H239.53V134.82H247.89V126.41H256.3V117.99H264.72V109.58H273.13V101.16H281.55V92.8H289.96V84.39H298.32V75.97H306.74V67.56H256.3V75.97H247.89V84.39H239.53V67.56H247.89V50.73H256.3V59.14H323.57V84.38H315.15V92.79H306.74V101.15H298.32V109.57H289.96V117.98H281.55V126.4H273.13V134.81H264.72V143.23H310.95V134.81H319.36V126.4H327.78V143.23H319.36V151.59V151.6Z" fill="#6A0DAD"/>
        <path d="M378.01 151.6H335.99V143.24H352.77V25.53H335.99V17.11H386.43V50.72H394.79V75.96H403.21V101.15H411.62V126.39H420.04V151.58H394.8V126.39H386.44V101.15H378.03V75.96H369.61V50.72H361.2V143.23H378.03V151.59L378.01 151.6ZM428.45 126.41H420.04V101.17H428.45V126.41ZM436.87 101.17H428.45V75.98H436.87V101.17ZM495.67 151.61H436.87V143.25H453.65V50.72H445.24V17.12H495.68V25.54H478.9V143.24H495.68V151.6L495.67 151.61ZM445.23 75.98H436.87V50.74H445.23V75.98Z" fill="#6A0DAD"/>
        <path d="M546.1 151.6H520.86V143.24H512.45V134.82H504.03V67.56H495.67V59.14H529.28V134.82H537.69V143.24H546.11V151.6H546.1ZM554.46 143.24H546.1V134.82H554.46V143.24ZM596.53 151.6H562.87V134.82H554.46V126.41H562.87V67.56H554.46V59.14H588.12V143.23H596.53V151.59V151.6Z" fill="#6A0DAD"/>
        <path d="M667.96 151.6H613.32V143.24H604.96V122.2H617.53V134.82H625.94V143.24H655.39V134.82H663.75V117.99H642.76V109.58H621.72V101.16H609.1V92.8H604.94V75.97H609.1V67.56H617.52V59.14H667.96V67.56H676.38V84.39H667.96V75.97H659.55V67.56H630.15V75.97H621.73V84.39H630.15V92.8H655.39V101.16H672.17V109.58H680.58V134.82H676.37V143.24H667.95V151.6H667.96Z" fill="#6A0DAD"/>
        <path d="M764.62 151.6H714.18V143.24H705.76V134.82H697.35V117.99H688.99V92.8H697.35V75.97H705.76V67.56H714.18V59.14H764.62V67.56H773.04V75.97H781.45V92.8H714.19V117.99H722.6V134.82H731.02V143.24H764.63V151.6H764.62ZM714.18 84.39H756.2V75.97H747.78V67.56H722.59V75.97H714.18V84.39ZM773.03 143.24H764.61V134.82H773.03V143.24ZM781.44 134.82H773.03V126.41H781.44V134.82Z" fill="#6A0DAD"/>
        <path d="M218.4 17.12H209.99V0.300003H201.58V17.12H193.23V8.71H184.82V17.12H193.18V33.93H184.82V42.34H193.23V33.93H201.58V42.29V50.7H209.99V42.29V33.93H218.4V17.12Z" fill="#F69565"/>
        <path d="M226.81 8.71H218.4V17.12H226.81V8.71Z" fill="#F69565"/>
        <path d="M235.22 0.300003H226.81V8.71H235.22V0.300003Z" fill="#F69565"/>
        <path d="M184.82 0.300003H176.41V8.71H184.82V0.300003Z" fill="#F69565"/>
        <path d="M184.82 42.34H176.41V50.75H184.82V42.34Z" fill="#F69565"/>
        <path d="M226.81 33.93H218.4V42.34H226.81V33.93Z" fill="#F69565"/>
        <path d="M235.22 42.34H226.81V50.75H235.22V42.34Z" fill="#F69565"/>
    </g>
    <defs>
        <clipPath id="clip0_1_234">
            <rect width="781.45" height="151.3" fill="white" transform="translate(0 0.300003)"/>
        </clipPath>
    </defs>
</svg>
